<mxfile host="app.diagrams.net" modified="2024-03-04T02:43:16.580Z" agent="Mozilla/5.0 (Windows NT 10.0; Win64; x64) AppleWebKit/537.36 (KHTML, like Gecko) Chrome/122.0.0.0 Safari/537.36 Edg/122.0.0.0" etag="gs8Mh_oUCCLFOSXUHlVo" version="24.0.1" type="github">
  <diagram id="R2lEEEUBdFMjLlhIrx00" name="Page-1">
    <mxGraphModel dx="1486" dy="784" grid="1" gridSize="10" guides="1" tooltips="1" connect="1" arrows="1" fold="1" page="1" pageScale="1" pageWidth="850" pageHeight="1100" math="0" shadow="0" extFonts="Permanent Marker^https://fonts.googleapis.com/css?family=Permanent+Marker">
      <root>
        <mxCell id="0" />
        <mxCell id="1" parent="0" />
        <mxCell id="102_mF9LF6HVOv6WJVdq-1" value="COURSE" style="whiteSpace=wrap;html=1;align=center;" vertex="1" parent="1">
          <mxGeometry x="245" y="200" width="100" height="40" as="geometry" />
        </mxCell>
        <mxCell id="102_mF9LF6HVOv6WJVdq-2" value="Course_Number" style="ellipse;whiteSpace=wrap;html=1;align=center;fontStyle=4;" vertex="1" parent="1">
          <mxGeometry x="145" y="70" width="100" height="40" as="geometry" />
        </mxCell>
        <mxCell id="102_mF9LF6HVOv6WJVdq-3" value="Course_Name" style="ellipse;whiteSpace=wrap;html=1;align=center;" vertex="1" parent="1">
          <mxGeometry x="345" y="100" width="100" height="40" as="geometry" />
        </mxCell>
        <mxCell id="102_mF9LF6HVOv6WJVdq-4" value="" style="endArrow=none;html=1;rounded=0;exitX=0.724;exitY=0.986;exitDx=0;exitDy=0;exitPerimeter=0;entryX=0;entryY=0;entryDx=0;entryDy=0;" edge="1" parent="1" source="102_mF9LF6HVOv6WJVdq-2" target="102_mF9LF6HVOv6WJVdq-1">
          <mxGeometry relative="1" as="geometry">
            <mxPoint x="70" y="190" as="sourcePoint" />
            <mxPoint x="230" y="190" as="targetPoint" />
          </mxGeometry>
        </mxCell>
        <mxCell id="102_mF9LF6HVOv6WJVdq-5" value="" style="endArrow=none;html=1;rounded=0;exitX=0.954;exitY=-0.086;exitDx=0;exitDy=0;exitPerimeter=0;entryX=0;entryY=0.75;entryDx=0;entryDy=0;entryPerimeter=0;" edge="1" parent="1" source="102_mF9LF6HVOv6WJVdq-1" target="102_mF9LF6HVOv6WJVdq-3">
          <mxGeometry relative="1" as="geometry">
            <mxPoint x="202" y="139" as="sourcePoint" />
            <mxPoint x="255" y="180" as="targetPoint" />
          </mxGeometry>
        </mxCell>
        <mxCell id="102_mF9LF6HVOv6WJVdq-6" value="Units" style="ellipse;whiteSpace=wrap;html=1;align=center;" vertex="1" parent="1">
          <mxGeometry x="245" y="60" width="100" height="40" as="geometry" />
        </mxCell>
        <mxCell id="102_mF9LF6HVOv6WJVdq-7" value="" style="endArrow=none;html=1;rounded=0;exitX=0.25;exitY=0;exitDx=0;exitDy=0;entryX=0.181;entryY=0.964;entryDx=0;entryDy=0;entryPerimeter=0;" edge="1" parent="1" target="102_mF9LF6HVOv6WJVdq-6" source="102_mF9LF6HVOv6WJVdq-1">
          <mxGeometry relative="1" as="geometry">
            <mxPoint x="260" y="180" as="sourcePoint" />
            <mxPoint x="205" y="130" as="targetPoint" />
          </mxGeometry>
        </mxCell>
        <mxCell id="102_mF9LF6HVOv6WJVdq-8" value="Is Prerequisite" style="shape=rhombus;perimeter=rhombusPerimeter;whiteSpace=wrap;html=1;align=center;" vertex="1" parent="1">
          <mxGeometry x="50" y="170" width="120" height="60" as="geometry" />
        </mxCell>
        <mxCell id="102_mF9LF6HVOv6WJVdq-22" value="" style="endArrow=oval;html=1;rounded=0;entryX=-0.006;entryY=0.864;entryDx=0;entryDy=0;entryPerimeter=0;exitX=0.5;exitY=1;exitDx=0;exitDy=0;endFill=0;" edge="1" parent="1" source="102_mF9LF6HVOv6WJVdq-8" target="102_mF9LF6HVOv6WJVdq-1">
          <mxGeometry relative="1" as="geometry">
            <mxPoint x="140" y="240" as="sourcePoint" />
            <mxPoint x="300" y="240" as="targetPoint" />
          </mxGeometry>
        </mxCell>
        <mxCell id="102_mF9LF6HVOv6WJVdq-23" value="M" style="resizable=0;html=1;whiteSpace=wrap;align=right;verticalAlign=bottom;" connectable="0" vertex="1" parent="102_mF9LF6HVOv6WJVdq-22">
          <mxGeometry x="1" relative="1" as="geometry" />
        </mxCell>
        <mxCell id="102_mF9LF6HVOv6WJVdq-24" value="" style="endArrow=oval;html=1;rounded=0;entryX=0;entryY=0.25;entryDx=0;entryDy=0;exitX=0.5;exitY=0;exitDx=0;exitDy=0;endFill=0;" edge="1" parent="1" source="102_mF9LF6HVOv6WJVdq-8" target="102_mF9LF6HVOv6WJVdq-1">
          <mxGeometry relative="1" as="geometry">
            <mxPoint x="120" y="240" as="sourcePoint" />
            <mxPoint x="257" y="215" as="targetPoint" />
          </mxGeometry>
        </mxCell>
        <mxCell id="102_mF9LF6HVOv6WJVdq-25" value="N" style="resizable=0;html=1;whiteSpace=wrap;align=right;verticalAlign=bottom;" connectable="0" vertex="1" parent="102_mF9LF6HVOv6WJVdq-24">
          <mxGeometry x="1" relative="1" as="geometry" />
        </mxCell>
        <mxCell id="102_mF9LF6HVOv6WJVdq-26" value="b." style="text;html=1;align=center;verticalAlign=middle;whiteSpace=wrap;rounded=0;" vertex="1" parent="1">
          <mxGeometry x="60" y="50" width="60" height="30" as="geometry" />
        </mxCell>
        <mxCell id="102_mF9LF6HVOv6WJVdq-27" value="g." style="text;html=1;align=center;verticalAlign=middle;whiteSpace=wrap;rounded=0;" vertex="1" parent="1">
          <mxGeometry x="10" y="310" width="60" height="30" as="geometry" />
        </mxCell>
        <mxCell id="102_mF9LF6HVOv6WJVdq-28" value="MEETING" style="whiteSpace=wrap;html=1;align=center;" vertex="1" parent="1">
          <mxGeometry x="180" y="560" width="100" height="40" as="geometry" />
        </mxCell>
        <mxCell id="102_mF9LF6HVOv6WJVdq-30" value="PARTICIPANT" style="whiteSpace=wrap;html=1;align=center;" vertex="1" parent="1">
          <mxGeometry x="530" y="555" width="100" height="40" as="geometry" />
        </mxCell>
        <mxCell id="102_mF9LF6HVOv6WJVdq-31" value="CITY" style="whiteSpace=wrap;html=1;align=center;" vertex="1" parent="1">
          <mxGeometry x="345" y="700" width="100" height="40" as="geometry" />
        </mxCell>
        <mxCell id="102_mF9LF6HVOv6WJVdq-32" value="(0,N)" style="text;html=1;align=center;verticalAlign=middle;whiteSpace=wrap;rounded=0;" vertex="1" parent="1">
          <mxGeometry x="185" y="240" width="60" height="30" as="geometry" />
        </mxCell>
        <mxCell id="102_mF9LF6HVOv6WJVdq-33" value="(0,N)" style="text;html=1;align=center;verticalAlign=middle;whiteSpace=wrap;rounded=0;" vertex="1" parent="1">
          <mxGeometry x="185" y="200" width="60" height="30" as="geometry" />
        </mxCell>
        <mxCell id="102_mF9LF6HVOv6WJVdq-36" value="" style="endArrow=none;html=1;rounded=0;entryX=0.441;entryY=0.043;entryDx=0;entryDy=0;entryPerimeter=0;exitX=0.5;exitY=1;exitDx=0;exitDy=0;" edge="1" parent="1" source="102_mF9LF6HVOv6WJVdq-38" target="102_mF9LF6HVOv6WJVdq-31">
          <mxGeometry relative="1" as="geometry">
            <mxPoint x="170" y="630" as="sourcePoint" />
            <mxPoint x="330" y="630" as="targetPoint" />
          </mxGeometry>
        </mxCell>
        <mxCell id="102_mF9LF6HVOv6WJVdq-39" value="" style="endArrow=none;html=1;rounded=0;entryX=0.441;entryY=0.043;entryDx=0;entryDy=0;entryPerimeter=0;exitX=0.5;exitY=1;exitDx=0;exitDy=0;" edge="1" parent="1" source="102_mF9LF6HVOv6WJVdq-28" target="102_mF9LF6HVOv6WJVdq-38">
          <mxGeometry relative="1" as="geometry">
            <mxPoint x="230" y="600" as="sourcePoint" />
            <mxPoint x="324" y="692" as="targetPoint" />
          </mxGeometry>
        </mxCell>
        <mxCell id="102_mF9LF6HVOv6WJVdq-38" value="takes place" style="shape=rhombus;perimeter=rhombusPerimeter;whiteSpace=wrap;html=1;align=center;" vertex="1" parent="1">
          <mxGeometry x="220" y="630" width="120" height="60" as="geometry" />
        </mxCell>
        <mxCell id="102_mF9LF6HVOv6WJVdq-40" value="(1,1)" style="text;html=1;align=center;verticalAlign=middle;whiteSpace=wrap;rounded=0;" vertex="1" parent="1">
          <mxGeometry x="195" y="600" width="60" height="30" as="geometry" />
        </mxCell>
        <mxCell id="102_mF9LF6HVOv6WJVdq-41" value="(1,1)" style="text;html=1;align=center;verticalAlign=middle;whiteSpace=wrap;rounded=0;" vertex="1" parent="1">
          <mxGeometry x="295" y="690" width="60" height="30" as="geometry" />
        </mxCell>
        <mxCell id="102_mF9LF6HVOv6WJVdq-42" value="" style="endArrow=none;html=1;rounded=0;exitX=1;exitY=0.5;exitDx=0;exitDy=0;entryX=0.001;entryY=0.664;entryDx=0;entryDy=0;entryPerimeter=0;endFill=0;startArrow=oval;startFill=0;" edge="1" parent="1" source="102_mF9LF6HVOv6WJVdq-72" target="102_mF9LF6HVOv6WJVdq-30">
          <mxGeometry relative="1" as="geometry">
            <mxPoint x="460.0000000000002" y="570" as="sourcePoint" />
            <mxPoint x="440" y="580" as="targetPoint" />
          </mxGeometry>
        </mxCell>
        <mxCell id="102_mF9LF6HVOv6WJVdq-44" value="M" style="resizable=0;html=1;whiteSpace=wrap;align=right;verticalAlign=bottom;" connectable="0" vertex="1" parent="102_mF9LF6HVOv6WJVdq-42">
          <mxGeometry x="1" relative="1" as="geometry">
            <mxPoint x="-30" y="-12" as="offset" />
          </mxGeometry>
        </mxCell>
        <mxCell id="102_mF9LF6HVOv6WJVdq-45" value="" style="endArrow=oval;html=1;rounded=0;exitX=0.99;exitY=0.636;exitDx=0;exitDy=0;exitPerimeter=0;entryX=-0.025;entryY=0.554;entryDx=0;entryDy=0;entryPerimeter=0;endFill=0;" edge="1" parent="1" source="102_mF9LF6HVOv6WJVdq-28" target="102_mF9LF6HVOv6WJVdq-72">
          <mxGeometry relative="1" as="geometry">
            <mxPoint x="279" y="585" as="sourcePoint" />
            <mxPoint x="340.0000000000002" y="570" as="targetPoint" />
          </mxGeometry>
        </mxCell>
        <mxCell id="102_mF9LF6HVOv6WJVdq-46" value="M" style="resizable=0;html=1;whiteSpace=wrap;align=left;verticalAlign=bottom;" connectable="0" vertex="1" parent="102_mF9LF6HVOv6WJVdq-45">
          <mxGeometry x="-1" relative="1" as="geometry">
            <mxPoint x="46" y="-10" as="offset" />
          </mxGeometry>
        </mxCell>
        <mxCell id="102_mF9LF6HVOv6WJVdq-49" value="(500,M)" style="text;html=1;align=center;verticalAlign=middle;whiteSpace=wrap;rounded=0;" vertex="1" parent="1">
          <mxGeometry x="260" y="530" width="60" height="30" as="geometry" />
        </mxCell>
        <mxCell id="102_mF9LF6HVOv6WJVdq-50" value="City_Name" style="ellipse;whiteSpace=wrap;html=1;align=center;" vertex="1" parent="1">
          <mxGeometry x="255" y="780" width="100" height="40" as="geometry" />
        </mxCell>
        <mxCell id="102_mF9LF6HVOv6WJVdq-51" value="City_ID" style="ellipse;whiteSpace=wrap;html=1;align=center;fontStyle=4;" vertex="1" parent="1">
          <mxGeometry x="370" y="780" width="100" height="40" as="geometry" />
        </mxCell>
        <mxCell id="102_mF9LF6HVOv6WJVdq-52" value="City_State" style="ellipse;whiteSpace=wrap;html=1;align=center;" vertex="1" parent="1">
          <mxGeometry x="490" y="780" width="100" height="40" as="geometry" />
        </mxCell>
        <mxCell id="102_mF9LF6HVOv6WJVdq-53" value="" style="endArrow=none;html=1;rounded=0;entryX=0.5;entryY=0;entryDx=0;entryDy=0;exitX=0.871;exitY=0.993;exitDx=0;exitDy=0;exitPerimeter=0;" edge="1" parent="1" source="102_mF9LF6HVOv6WJVdq-31" target="102_mF9LF6HVOv6WJVdq-52">
          <mxGeometry relative="1" as="geometry">
            <mxPoint x="510" y="760" as="sourcePoint" />
            <mxPoint x="670" y="760" as="targetPoint" />
          </mxGeometry>
        </mxCell>
        <mxCell id="102_mF9LF6HVOv6WJVdq-54" value="" style="endArrow=none;html=1;rounded=0;entryX=0.5;entryY=0;entryDx=0;entryDy=0;exitX=0.569;exitY=1.05;exitDx=0;exitDy=0;exitPerimeter=0;" edge="1" parent="1" source="102_mF9LF6HVOv6WJVdq-31" target="102_mF9LF6HVOv6WJVdq-51">
          <mxGeometry relative="1" as="geometry">
            <mxPoint x="442" y="750" as="sourcePoint" />
            <mxPoint x="550" y="790" as="targetPoint" />
          </mxGeometry>
        </mxCell>
        <mxCell id="102_mF9LF6HVOv6WJVdq-55" value="" style="endArrow=none;html=1;rounded=0;entryX=0.64;entryY=-0.021;entryDx=0;entryDy=0;exitX=0.25;exitY=1;exitDx=0;exitDy=0;entryPerimeter=0;" edge="1" parent="1" source="102_mF9LF6HVOv6WJVdq-31" target="102_mF9LF6HVOv6WJVdq-50">
          <mxGeometry relative="1" as="geometry">
            <mxPoint x="452" y="760" as="sourcePoint" />
            <mxPoint x="560" y="800" as="targetPoint" />
          </mxGeometry>
        </mxCell>
        <mxCell id="102_mF9LF6HVOv6WJVdq-56" value="Meeting_Hotel" style="ellipse;whiteSpace=wrap;html=1;align=center;" vertex="1" parent="1">
          <mxGeometry x="55" y="620" width="100" height="40" as="geometry" />
        </mxCell>
        <mxCell id="102_mF9LF6HVOv6WJVdq-57" value="Meeting_ID" style="ellipse;whiteSpace=wrap;html=1;align=center;fontStyle=4;" vertex="1" parent="1">
          <mxGeometry x="40" y="535" width="100" height="40" as="geometry" />
        </mxCell>
        <mxCell id="102_mF9LF6HVOv6WJVdq-58" value="Meeting_Title" style="ellipse;whiteSpace=wrap;html=1;align=center;" vertex="1" parent="1">
          <mxGeometry x="40" y="460" width="100" height="40" as="geometry" />
        </mxCell>
        <mxCell id="102_mF9LF6HVOv6WJVdq-59" value="" style="endArrow=none;html=1;rounded=0;exitX=1;exitY=0.5;exitDx=0;exitDy=0;entryX=0.5;entryY=0;entryDx=0;entryDy=0;" edge="1" parent="1" source="102_mF9LF6HVOv6WJVdq-58" target="102_mF9LF6HVOv6WJVdq-28">
          <mxGeometry relative="1" as="geometry">
            <mxPoint x="300" y="620" as="sourcePoint" />
            <mxPoint x="460" y="620" as="targetPoint" />
          </mxGeometry>
        </mxCell>
        <mxCell id="102_mF9LF6HVOv6WJVdq-60" value="" style="endArrow=none;html=1;rounded=0;exitX=0.99;exitY=0.646;exitDx=0;exitDy=0;entryX=0;entryY=0.25;entryDx=0;entryDy=0;exitPerimeter=0;" edge="1" parent="1" source="102_mF9LF6HVOv6WJVdq-57" target="102_mF9LF6HVOv6WJVdq-28">
          <mxGeometry relative="1" as="geometry">
            <mxPoint x="150" y="490" as="sourcePoint" />
            <mxPoint x="240" y="570" as="targetPoint" />
          </mxGeometry>
        </mxCell>
        <mxCell id="102_mF9LF6HVOv6WJVdq-61" value="" style="endArrow=none;html=1;rounded=0;exitX=0.966;exitY=0.279;exitDx=0;exitDy=0;entryX=0.104;entryY=1.007;entryDx=0;entryDy=0;exitPerimeter=0;entryPerimeter=0;" edge="1" parent="1" source="102_mF9LF6HVOv6WJVdq-56" target="102_mF9LF6HVOv6WJVdq-28">
          <mxGeometry relative="1" as="geometry">
            <mxPoint x="160" y="500" as="sourcePoint" />
            <mxPoint x="250" y="580" as="targetPoint" />
          </mxGeometry>
        </mxCell>
        <mxCell id="102_mF9LF6HVOv6WJVdq-62" value="Participant_Name" style="ellipse;whiteSpace=wrap;html=1;align=center;" vertex="1" parent="1">
          <mxGeometry x="730" y="490" width="100" height="40" as="geometry" />
        </mxCell>
        <mxCell id="102_mF9LF6HVOv6WJVdq-63" value="Participant_ID" style="ellipse;whiteSpace=wrap;html=1;align=center;fontStyle=4;" vertex="1" parent="1">
          <mxGeometry x="630" y="460" width="100" height="40" as="geometry" />
        </mxCell>
        <mxCell id="102_mF9LF6HVOv6WJVdq-65" value="" style="endArrow=none;html=1;rounded=0;entryX=0.021;entryY=0.622;entryDx=0;entryDy=0;entryPerimeter=0;exitX=0.25;exitY=0;exitDx=0;exitDy=0;" edge="1" parent="1" source="102_mF9LF6HVOv6WJVdq-30" target="102_mF9LF6HVOv6WJVdq-63">
          <mxGeometry relative="1" as="geometry">
            <mxPoint x="440" y="540" as="sourcePoint" />
            <mxPoint x="600" y="540" as="targetPoint" />
          </mxGeometry>
        </mxCell>
        <mxCell id="102_mF9LF6HVOv6WJVdq-66" value="Participant_Cell _Phone" style="ellipse;whiteSpace=wrap;html=1;align=center;" vertex="1" parent="1">
          <mxGeometry x="740" y="550" width="100" height="40" as="geometry" />
        </mxCell>
        <mxCell id="102_mF9LF6HVOv6WJVdq-67" value="Participant_Email" style="ellipse;whiteSpace=wrap;html=1;align=center;" vertex="1" parent="1">
          <mxGeometry x="680" y="595" width="100" height="40" as="geometry" />
        </mxCell>
        <mxCell id="102_mF9LF6HVOv6WJVdq-69" value="" style="endArrow=none;html=1;rounded=0;entryX=0;entryY=0.5;entryDx=0;entryDy=0;exitX=1;exitY=0;exitDx=0;exitDy=0;" edge="1" parent="1" source="102_mF9LF6HVOv6WJVdq-30" target="102_mF9LF6HVOv6WJVdq-62">
          <mxGeometry relative="1" as="geometry">
            <mxPoint x="440" y="670" as="sourcePoint" />
            <mxPoint x="600" y="670" as="targetPoint" />
          </mxGeometry>
        </mxCell>
        <mxCell id="102_mF9LF6HVOv6WJVdq-70" value="" style="endArrow=none;html=1;rounded=0;entryX=0;entryY=0.5;entryDx=0;entryDy=0;exitX=1;exitY=0.25;exitDx=0;exitDy=0;" edge="1" parent="1" source="102_mF9LF6HVOv6WJVdq-30" target="102_mF9LF6HVOv6WJVdq-66">
          <mxGeometry relative="1" as="geometry">
            <mxPoint x="628" y="569" as="sourcePoint" />
            <mxPoint x="610" y="680" as="targetPoint" />
          </mxGeometry>
        </mxCell>
        <mxCell id="102_mF9LF6HVOv6WJVdq-71" value="" style="endArrow=none;html=1;rounded=0;entryX=0;entryY=0.5;entryDx=0;entryDy=0;exitX=1;exitY=0.75;exitDx=0;exitDy=0;" edge="1" parent="1" source="102_mF9LF6HVOv6WJVdq-30" target="102_mF9LF6HVOv6WJVdq-67">
          <mxGeometry relative="1" as="geometry">
            <mxPoint x="460" y="690" as="sourcePoint" />
            <mxPoint x="620" y="690" as="targetPoint" />
          </mxGeometry>
        </mxCell>
        <mxCell id="102_mF9LF6HVOv6WJVdq-72" value="REGISTRATION" style="shape=associativeEntity;whiteSpace=wrap;html=1;align=center;" vertex="1" parent="1">
          <mxGeometry x="340" y="540" width="140" height="60" as="geometry" />
        </mxCell>
        <mxCell id="102_mF9LF6HVOv6WJVdq-73" value="Registration_ID" style="ellipse;whiteSpace=wrap;html=1;align=center;fontStyle=4;" vertex="1" parent="1">
          <mxGeometry x="520" y="410" width="100" height="40" as="geometry" />
        </mxCell>
        <mxCell id="102_mF9LF6HVOv6WJVdq-74" value="Registration_&lt;div&gt;Travel&lt;/div&gt;" style="ellipse;whiteSpace=wrap;html=1;align=center;" vertex="1" parent="1">
          <mxGeometry x="245" y="430" width="100" height="40" as="geometry" />
        </mxCell>
        <mxCell id="102_mF9LF6HVOv6WJVdq-75" value="Registration_&lt;div&gt;Arrival_Time&lt;/div&gt;" style="ellipse;whiteSpace=wrap;html=1;align=center;" vertex="1" parent="1">
          <mxGeometry x="330" y="380" width="100" height="40" as="geometry" />
        </mxCell>
        <mxCell id="102_mF9LF6HVOv6WJVdq-76" value="Registration_&lt;div&gt;Departure_Time&lt;/div&gt;" style="ellipse;whiteSpace=wrap;html=1;align=center;" vertex="1" parent="1">
          <mxGeometry x="440" y="370" width="100" height="40" as="geometry" />
        </mxCell>
        <mxCell id="102_mF9LF6HVOv6WJVdq-81" value="" style="endArrow=none;html=1;rounded=0;exitX=0.704;exitY=0.997;exitDx=0;exitDy=0;exitPerimeter=0;entryX=0;entryY=0;entryDx=0;entryDy=0;" edge="1" parent="1" source="102_mF9LF6HVOv6WJVdq-74" target="102_mF9LF6HVOv6WJVdq-72">
          <mxGeometry relative="1" as="geometry">
            <mxPoint x="390" y="510" as="sourcePoint" />
            <mxPoint x="550" y="510" as="targetPoint" />
          </mxGeometry>
        </mxCell>
        <mxCell id="102_mF9LF6HVOv6WJVdq-82" value="" style="endArrow=none;html=1;rounded=0;exitX=0.5;exitY=1;exitDx=0;exitDy=0;entryX=0.25;entryY=0;entryDx=0;entryDy=0;" edge="1" parent="1" source="102_mF9LF6HVOv6WJVdq-75" target="102_mF9LF6HVOv6WJVdq-72">
          <mxGeometry relative="1" as="geometry">
            <mxPoint x="400" y="520" as="sourcePoint" />
            <mxPoint x="560" y="520" as="targetPoint" />
          </mxGeometry>
        </mxCell>
        <mxCell id="102_mF9LF6HVOv6WJVdq-83" value="" style="endArrow=none;html=1;rounded=0;exitX=0;exitY=1;exitDx=0;exitDy=0;entryX=0.5;entryY=0;entryDx=0;entryDy=0;" edge="1" parent="1" source="102_mF9LF6HVOv6WJVdq-76" target="102_mF9LF6HVOv6WJVdq-72">
          <mxGeometry relative="1" as="geometry">
            <mxPoint x="410" y="530" as="sourcePoint" />
            <mxPoint x="570" y="530" as="targetPoint" />
          </mxGeometry>
        </mxCell>
        <mxCell id="102_mF9LF6HVOv6WJVdq-84" value="" style="endArrow=none;html=1;rounded=0;entryX=0;entryY=1;entryDx=0;entryDy=0;exitX=0.75;exitY=0;exitDx=0;exitDy=0;" edge="1" parent="1" source="102_mF9LF6HVOv6WJVdq-72" target="102_mF9LF6HVOv6WJVdq-73">
          <mxGeometry relative="1" as="geometry">
            <mxPoint x="420" y="540" as="sourcePoint" />
            <mxPoint x="580" y="540" as="targetPoint" />
          </mxGeometry>
        </mxCell>
        <mxCell id="102_mF9LF6HVOv6WJVdq-85" value="1" style="resizable=0;html=1;whiteSpace=wrap;align=left;verticalAlign=bottom;rotation=0;direction=west;" connectable="0" vertex="1" parent="1">
          <mxGeometry x="280" y="580" as="geometry" />
        </mxCell>
        <mxCell id="102_mF9LF6HVOv6WJVdq-86" value="1" style="resizable=0;html=1;whiteSpace=wrap;align=right;verticalAlign=bottom;" connectable="0" vertex="1" parent="1">
          <mxGeometry x="529.9990845586415" y="580.0013296905768" as="geometry" />
        </mxCell>
        <mxCell id="102_mF9LF6HVOv6WJVdq-87" value="(1,1)" style="text;html=1;align=center;verticalAlign=middle;whiteSpace=wrap;rounded=0;" vertex="1" parent="1">
          <mxGeometry x="295" y="575" width="60" height="30" as="geometry" />
        </mxCell>
        <mxCell id="102_mF9LF6HVOv6WJVdq-88" value="(1,1)" style="text;html=1;align=center;verticalAlign=middle;whiteSpace=wrap;rounded=0;" vertex="1" parent="1">
          <mxGeometry x="500" y="590" width="60" height="30" as="geometry" />
        </mxCell>
        <mxCell id="102_mF9LF6HVOv6WJVdq-89" value="DIETARY RESTRICTION" style="whiteSpace=wrap;html=1;align=center;" vertex="1" parent="1">
          <mxGeometry x="660" y="710" width="100" height="40" as="geometry" />
        </mxCell>
        <mxCell id="102_mF9LF6HVOv6WJVdq-90" value="DR_ID" style="ellipse;whiteSpace=wrap;html=1;align=center;fontStyle=4;" vertex="1" parent="1">
          <mxGeometry x="590" y="830" width="100" height="40" as="geometry" />
        </mxCell>
        <mxCell id="102_mF9LF6HVOv6WJVdq-91" value="DR_Type" style="ellipse;whiteSpace=wrap;html=1;align=center;" vertex="1" parent="1">
          <mxGeometry x="720" y="800" width="100" height="40" as="geometry" />
        </mxCell>
        <mxCell id="102_mF9LF6HVOv6WJVdq-92" value="" style="endArrow=none;html=1;rounded=0;entryX=0.5;entryY=0;entryDx=0;entryDy=0;exitX=0.5;exitY=1;exitDx=0;exitDy=0;" edge="1" parent="1" source="102_mF9LF6HVOv6WJVdq-89" target="102_mF9LF6HVOv6WJVdq-90">
          <mxGeometry relative="1" as="geometry">
            <mxPoint x="400" y="640" as="sourcePoint" />
            <mxPoint x="560" y="640" as="targetPoint" />
          </mxGeometry>
        </mxCell>
        <mxCell id="102_mF9LF6HVOv6WJVdq-94" value="" style="endArrow=none;html=1;rounded=0;entryX=0;entryY=0;entryDx=0;entryDy=0;exitX=0.75;exitY=1;exitDx=0;exitDy=0;" edge="1" parent="1" source="102_mF9LF6HVOv6WJVdq-89" target="102_mF9LF6HVOv6WJVdq-91">
          <mxGeometry relative="1" as="geometry">
            <mxPoint x="720" y="760" as="sourcePoint" />
            <mxPoint x="720" y="800" as="targetPoint" />
            <Array as="points" />
          </mxGeometry>
        </mxCell>
        <mxCell id="102_mF9LF6HVOv6WJVdq-97" value="" style="endArrow=oval;html=1;rounded=0;entryX=0;entryY=0.5;entryDx=0;entryDy=0;exitX=0.961;exitY=0.472;exitDx=0;exitDy=0;startArrow=none;startFill=0;endFill=0;exitPerimeter=0;" edge="1" parent="1" source="102_mF9LF6HVOv6WJVdq-109" target="102_mF9LF6HVOv6WJVdq-89">
          <mxGeometry relative="1" as="geometry">
            <mxPoint x="450" y="680" as="sourcePoint" />
            <mxPoint x="610" y="680" as="targetPoint" />
          </mxGeometry>
        </mxCell>
        <mxCell id="102_mF9LF6HVOv6WJVdq-99" value="N" style="resizable=0;html=1;whiteSpace=wrap;align=right;verticalAlign=bottom;" connectable="0" vertex="1" parent="102_mF9LF6HVOv6WJVdq-97">
          <mxGeometry x="1" relative="1" as="geometry" />
        </mxCell>
        <mxCell id="102_mF9LF6HVOv6WJVdq-106" value="" style="endArrow=none;html=1;rounded=0;entryX=0;entryY=0.5;entryDx=0;entryDy=0;exitX=0.25;exitY=1;exitDx=0;exitDy=0;startArrow=oval;startFill=0;endFill=0;" edge="1" parent="1" source="102_mF9LF6HVOv6WJVdq-72" target="102_mF9LF6HVOv6WJVdq-109">
          <mxGeometry relative="1" as="geometry">
            <mxPoint x="375" y="600" as="sourcePoint" />
            <mxPoint x="660" y="730" as="targetPoint" />
          </mxGeometry>
        </mxCell>
        <mxCell id="102_mF9LF6HVOv6WJVdq-107" value="M" style="resizable=0;html=1;whiteSpace=wrap;align=left;verticalAlign=bottom;" connectable="0" vertex="1" parent="102_mF9LF6HVOv6WJVdq-106">
          <mxGeometry x="-1" relative="1" as="geometry">
            <mxPoint y="20" as="offset" />
          </mxGeometry>
        </mxCell>
        <mxCell id="102_mF9LF6HVOv6WJVdq-109" value="includes" style="shape=rhombus;perimeter=rhombusPerimeter;whiteSpace=wrap;html=1;align=center;" vertex="1" parent="1">
          <mxGeometry x="445" y="640" width="120" height="60" as="geometry" />
        </mxCell>
        <mxCell id="102_mF9LF6HVOv6WJVdq-113" value="" style="endArrow=oval;html=1;rounded=0;entryX=0.5;entryY=0;entryDx=0;entryDy=0;exitX=0.5;exitY=1;exitDx=0;exitDy=0;startArrow=none;startFill=0;endFill=0;" edge="1" parent="1" source="102_mF9LF6HVOv6WJVdq-119" target="102_mF9LF6HVOv6WJVdq-89">
          <mxGeometry relative="1" as="geometry">
            <mxPoint x="310" y="580" as="sourcePoint" />
            <mxPoint x="595" y="710" as="targetPoint" />
          </mxGeometry>
        </mxCell>
        <mxCell id="102_mF9LF6HVOv6WJVdq-115" value="N" style="resizable=0;html=1;whiteSpace=wrap;align=right;verticalAlign=bottom;" connectable="0" vertex="1" parent="102_mF9LF6HVOv6WJVdq-113">
          <mxGeometry x="1" relative="1" as="geometry" />
        </mxCell>
        <mxCell id="102_mF9LF6HVOv6WJVdq-116" value="" style="endArrow=none;html=1;rounded=0;entryX=0.5;entryY=0;entryDx=0;entryDy=0;exitX=0.25;exitY=1;exitDx=0;exitDy=0;startArrow=oval;startFill=0;endFill=0;" edge="1" parent="1" source="102_mF9LF6HVOv6WJVdq-30" target="102_mF9LF6HVOv6WJVdq-119">
          <mxGeometry relative="1" as="geometry">
            <mxPoint x="555" y="595" as="sourcePoint" />
            <mxPoint x="710" y="710" as="targetPoint" />
          </mxGeometry>
        </mxCell>
        <mxCell id="102_mF9LF6HVOv6WJVdq-117" value="M" style="resizable=0;html=1;whiteSpace=wrap;align=left;verticalAlign=bottom;" connectable="0" vertex="1" parent="102_mF9LF6HVOv6WJVdq-116">
          <mxGeometry x="-1" relative="1" as="geometry">
            <mxPoint y="20" as="offset" />
          </mxGeometry>
        </mxCell>
        <mxCell id="102_mF9LF6HVOv6WJVdq-119" value="has" style="shape=rhombus;perimeter=rhombusPerimeter;whiteSpace=wrap;html=1;align=center;" vertex="1" parent="1">
          <mxGeometry x="560" y="620" width="120" height="60" as="geometry" />
        </mxCell>
      </root>
    </mxGraphModel>
  </diagram>
</mxfile>
